<mxfile host="app.diagrams.net" modified="2020-12-04T18:55:34.003Z" agent="5.0 (Macintosh; Intel Mac OS X 10_15_6) AppleWebKit/605.1.15 (KHTML, like Gecko) Version/14.0.1 Safari/605.1.15" etag="YGm12F2ZwCs1Dvmlpyur" version="13.10.6" type="github" pages="5">
  <diagram id="kgpKYQtTHZ0yAKxKKP6v" name="SetTempForZone/Room">
    <mxGraphModel dx="466" dy="645" grid="1" gridSize="10" guides="1" tooltips="1" connect="1" arrows="1" fold="1" page="1" pageScale="1" pageWidth="850" pageHeight="1100" math="0" shadow="0">
      <root>
        <mxCell id="0" />
        <mxCell id="1" parent="0" />
        <mxCell id="lhcArw72Mbw9M8PvTjn8-2" value=":User" style="shape=umlLifeline;participant=umlActor;perimeter=lifelinePerimeter;whiteSpace=wrap;html=1;container=1;collapsible=0;recursiveResize=0;verticalAlign=top;spacingTop=36;outlineConnect=0;" parent="1" vertex="1">
          <mxGeometry x="190" y="200" width="20" height="410" as="geometry" />
        </mxCell>
        <mxCell id="lhcArw72Mbw9M8PvTjn8-9" value="" style="html=1;points=[];perimeter=orthogonalPerimeter;" parent="lhcArw72Mbw9M8PvTjn8-2" vertex="1">
          <mxGeometry x="5" y="60" width="10" height="350" as="geometry" />
        </mxCell>
        <mxCell id="lhcArw72Mbw9M8PvTjn8-3" value=":SHH" style="shape=umlLifeline;perimeter=lifelinePerimeter;whiteSpace=wrap;html=1;container=1;collapsible=0;recursiveResize=0;outlineConnect=0;" parent="1" vertex="1">
          <mxGeometry x="320" y="200" width="100" height="350" as="geometry" />
        </mxCell>
        <mxCell id="lhcArw72Mbw9M8PvTjn8-4" value="" style="html=1;points=[];perimeter=orthogonalPerimeter;" parent="lhcArw72Mbw9M8PvTjn8-3" vertex="1">
          <mxGeometry x="45" y="60" width="10" height="50" as="geometry" />
        </mxCell>
        <mxCell id="lhcArw72Mbw9M8PvTjn8-5" value="selectTempOfZone/Room" style="html=1;verticalAlign=bottom;endArrow=block;entryX=0;entryY=0;" parent="1" source="lhcArw72Mbw9M8PvTjn8-2" target="lhcArw72Mbw9M8PvTjn8-4" edge="1">
          <mxGeometry relative="1" as="geometry">
            <mxPoint x="290" y="260" as="sourcePoint" />
          </mxGeometry>
        </mxCell>
        <mxCell id="lhcArw72Mbw9M8PvTjn8-6" value="confirmMessage" style="html=1;verticalAlign=bottom;endArrow=open;dashed=1;endSize=8;exitX=0;exitY=0.95;" parent="1" source="lhcArw72Mbw9M8PvTjn8-4" target="lhcArw72Mbw9M8PvTjn8-2" edge="1">
          <mxGeometry relative="1" as="geometry">
            <mxPoint x="290" y="336" as="targetPoint" />
          </mxGeometry>
        </mxCell>
        <mxCell id="lhcArw72Mbw9M8PvTjn8-8" value="changeToTheZone/Room" style="edgeStyle=orthogonalEdgeStyle;html=1;align=left;spacingLeft=2;endArrow=block;rounded=0;entryX=1;entryY=0;" parent="1" edge="1">
          <mxGeometry relative="1" as="geometry">
            <mxPoint x="370" y="270" as="sourcePoint" />
            <Array as="points">
              <mxPoint x="395" y="270" />
            </Array>
            <mxPoint x="375" y="290" as="targetPoint" />
          </mxGeometry>
        </mxCell>
        <mxCell id="lhcArw72Mbw9M8PvTjn8-15" value="" style="endArrow=none;dashed=1;html=1;entryX=1;entryY=0.505;entryDx=0;entryDy=0;entryPerimeter=0;exitX=0.003;exitY=0.5;exitDx=0;exitDy=0;exitPerimeter=0;" parent="1" source="lhcArw72Mbw9M8PvTjn8-13" target="lhcArw72Mbw9M8PvTjn8-13" edge="1">
          <mxGeometry width="50" height="50" relative="1" as="geometry">
            <mxPoint x="140" y="429.5" as="sourcePoint" />
            <mxPoint x="250" y="429.5" as="targetPoint" />
          </mxGeometry>
        </mxCell>
        <mxCell id="lhcArw72Mbw9M8PvTjn8-26" value="[while set = false]" style="text;html=1;align=center;verticalAlign=middle;resizable=0;points=[];autosize=1;fillColor=#FFFFFF;" parent="1" vertex="1">
          <mxGeometry x="130" y="340" width="110" height="20" as="geometry" />
        </mxCell>
        <mxCell id="lhcArw72Mbw9M8PvTjn8-10" value="" style="html=1;points=[];perimeter=orthogonalPerimeter;" parent="1" vertex="1">
          <mxGeometry x="365" y="420" width="10" height="50" as="geometry" />
        </mxCell>
        <mxCell id="lhcArw72Mbw9M8PvTjn8-16" value="" style="html=1;points=[];perimeter=orthogonalPerimeter;" parent="1" vertex="1">
          <mxGeometry x="365" y="420" width="10" height="190" as="geometry" />
        </mxCell>
        <mxCell id="lhcArw72Mbw9M8PvTjn8-11" value="inputDesiredTemp" style="html=1;verticalAlign=bottom;endArrow=block;entryX=0;entryY=0;" parent="1" target="lhcArw72Mbw9M8PvTjn8-10" edge="1">
          <mxGeometry relative="1" as="geometry">
            <mxPoint x="205" y="420" as="sourcePoint" />
          </mxGeometry>
        </mxCell>
        <mxCell id="lhcArw72Mbw9M8PvTjn8-12" value="successMessage" style="html=1;verticalAlign=bottom;endArrow=open;dashed=1;endSize=8;exitX=0;exitY=0.95;" parent="1" source="lhcArw72Mbw9M8PvTjn8-10" edge="1">
          <mxGeometry relative="1" as="geometry">
            <mxPoint x="205" y="467.5" as="targetPoint" />
          </mxGeometry>
        </mxCell>
        <mxCell id="lhcArw72Mbw9M8PvTjn8-18" value="modifyTemp, &lt;br&gt;set = true" style="edgeStyle=orthogonalEdgeStyle;html=1;align=left;spacingLeft=2;endArrow=block;rounded=0;entryX=1;entryY=0;" parent="1" edge="1">
          <mxGeometry relative="1" as="geometry">
            <mxPoint x="370" y="430" as="sourcePoint" />
            <Array as="points">
              <mxPoint x="395" y="430" />
            </Array>
            <mxPoint x="375" y="450" as="targetPoint" />
          </mxGeometry>
        </mxCell>
        <mxCell id="lhcArw72Mbw9M8PvTjn8-19" value="[DesiredTemp &amp;lt; 60 || &lt;br&gt;DesiredTemp &amp;gt; 0&amp;nbsp;]" style="text;html=1;align=center;verticalAlign=middle;resizable=0;points=[];autosize=1;fillColor=#FFFFFF;shadow=0;" parent="1" vertex="1">
          <mxGeometry x="340" y="380" width="130" height="30" as="geometry" />
        </mxCell>
        <mxCell id="lhcArw72Mbw9M8PvTjn8-20" value="[else]" style="text;html=1;align=center;verticalAlign=middle;resizable=0;points=[];autosize=1;" parent="1" vertex="1">
          <mxGeometry x="405" y="500" width="40" height="20" as="geometry" />
        </mxCell>
        <mxCell id="lhcArw72Mbw9M8PvTjn8-22" value="errorMessage" style="html=1;verticalAlign=bottom;endArrow=open;dashed=1;endSize=8;" parent="1" source="lhcArw72Mbw9M8PvTjn8-16" edge="1">
          <mxGeometry relative="1" as="geometry">
            <mxPoint x="280" y="520" as="sourcePoint" />
            <mxPoint x="200" y="520" as="targetPoint" />
          </mxGeometry>
        </mxCell>
        <mxCell id="lhcArw72Mbw9M8PvTjn8-23" value="inputDesiredTemp" style="html=1;verticalAlign=bottom;endArrow=block;entryX=0.033;entryY=0.734;entryDx=0;entryDy=0;entryPerimeter=0;" parent="1" target="lhcArw72Mbw9M8PvTjn8-16" edge="1">
          <mxGeometry width="80" relative="1" as="geometry">
            <mxPoint x="205" y="559.46" as="sourcePoint" />
            <mxPoint x="340" y="560" as="targetPoint" />
          </mxGeometry>
        </mxCell>
        <mxCell id="lhcArw72Mbw9M8PvTjn8-13" value="alt" style="shape=umlFrame;whiteSpace=wrap;html=1;width=40;height=20;" parent="1" vertex="1">
          <mxGeometry x="140" y="370" width="330" height="250" as="geometry" />
        </mxCell>
        <mxCell id="lhcArw72Mbw9M8PvTjn8-25" value="loop" style="shape=umlFrame;whiteSpace=wrap;html=1;shadow=0;fillColor=#FFFFFF;width=50;height=20;" parent="1" vertex="1">
          <mxGeometry x="100" y="320" width="380" height="310" as="geometry" />
        </mxCell>
      </root>
    </mxGraphModel>
  </diagram>
  <diagram id="YWMfqUhMTUKm7gQqHDon" name="DisplayRoomTemp">
    <mxGraphModel dx="466" dy="645" grid="1" gridSize="10" guides="1" tooltips="1" connect="1" arrows="1" fold="1" page="1" pageScale="1" pageWidth="850" pageHeight="1100" math="0" shadow="0">
      <root>
        <mxCell id="bGHKmagNLLG-o4S90rGU-0" />
        <mxCell id="bGHKmagNLLG-o4S90rGU-1" parent="bGHKmagNLLG-o4S90rGU-0" />
        <mxCell id="HIW2l6GMeRsGFYgbqVl1-0" value=":User" style="shape=umlLifeline;participant=umlActor;perimeter=lifelinePerimeter;whiteSpace=wrap;html=1;container=1;collapsible=0;recursiveResize=0;verticalAlign=top;spacingTop=36;outlineConnect=0;shadow=0;fillColor=#FFFFFF;" parent="bGHKmagNLLG-o4S90rGU-1" vertex="1">
          <mxGeometry x="230" y="190" width="20" height="190" as="geometry" />
        </mxCell>
        <mxCell id="s9i3gwIcVF2IHLuW9Wfh-0" value="" style="html=1;points=[];perimeter=orthogonalPerimeter;shadow=0;fillColor=#FFFFFF;" parent="HIW2l6GMeRsGFYgbqVl1-0" vertex="1">
          <mxGeometry x="5" y="70" width="10" height="70" as="geometry" />
        </mxCell>
        <mxCell id="HIW2l6GMeRsGFYgbqVl1-1" value=":SHH" style="shape=umlLifeline;perimeter=lifelinePerimeter;whiteSpace=wrap;html=1;container=1;collapsible=0;recursiveResize=0;outlineConnect=0;shadow=0;fillColor=#FFFFFF;" parent="bGHKmagNLLG-o4S90rGU-1" vertex="1">
          <mxGeometry x="340" y="190" width="100" height="190" as="geometry" />
        </mxCell>
        <mxCell id="s9i3gwIcVF2IHLuW9Wfh-1" value="" style="html=1;points=[];perimeter=orthogonalPerimeter;shadow=0;fillColor=#FFFFFF;" parent="HIW2l6GMeRsGFYgbqVl1-1" vertex="1">
          <mxGeometry x="45" y="70" width="10" height="70" as="geometry" />
        </mxCell>
        <mxCell id="s9i3gwIcVF2IHLuW9Wfh-2" value="selectRoomToDisplay" style="html=1;verticalAlign=bottom;endArrow=block;" parent="bGHKmagNLLG-o4S90rGU-1" target="s9i3gwIcVF2IHLuW9Wfh-1" edge="1">
          <mxGeometry width="80" relative="1" as="geometry">
            <mxPoint x="240" y="260" as="sourcePoint" />
            <mxPoint x="320" y="260" as="targetPoint" />
          </mxGeometry>
        </mxCell>
        <mxCell id="s9i3gwIcVF2IHLuW9Wfh-3" value="displayRoomTemp" style="html=1;verticalAlign=bottom;endArrow=open;dashed=1;endSize=8;" parent="bGHKmagNLLG-o4S90rGU-1" source="HIW2l6GMeRsGFYgbqVl1-1" edge="1">
          <mxGeometry relative="1" as="geometry">
            <mxPoint x="320" y="330" as="sourcePoint" />
            <mxPoint x="240" y="330" as="targetPoint" />
          </mxGeometry>
        </mxCell>
      </root>
    </mxGraphModel>
  </diagram>
  <diagram id="w-tRJo2W-2mMPzgcjWOK" name="SetDefaultTemp">
    <mxGraphModel dx="466" dy="645" grid="1" gridSize="10" guides="1" tooltips="1" connect="1" arrows="1" fold="1" page="1" pageScale="1" pageWidth="850" pageHeight="1100" math="0" shadow="0">
      <root>
        <mxCell id="Ng2WjSJcqN4tj9qCuIeY-0" />
        <mxCell id="Ng2WjSJcqN4tj9qCuIeY-1" parent="Ng2WjSJcqN4tj9qCuIeY-0" />
        <mxCell id="Ng2WjSJcqN4tj9qCuIeY-2" value=":User" style="shape=umlLifeline;participant=umlActor;perimeter=lifelinePerimeter;whiteSpace=wrap;html=1;container=1;collapsible=0;recursiveResize=0;verticalAlign=top;spacingTop=36;outlineConnect=0;shadow=0;fillColor=#FFFFFF;" parent="Ng2WjSJcqN4tj9qCuIeY-1" vertex="1">
          <mxGeometry x="130" y="180" width="20" height="160" as="geometry" />
        </mxCell>
        <mxCell id="Ng2WjSJcqN4tj9qCuIeY-4" value="" style="html=1;points=[];perimeter=orthogonalPerimeter;shadow=0;fillColor=#FFFFFF;" parent="Ng2WjSJcqN4tj9qCuIeY-2" vertex="1">
          <mxGeometry x="5" y="70" width="10" height="80" as="geometry" />
        </mxCell>
        <mxCell id="Ng2WjSJcqN4tj9qCuIeY-3" value=":SHH" style="shape=umlLifeline;perimeter=lifelinePerimeter;whiteSpace=wrap;html=1;container=1;collapsible=0;recursiveResize=0;outlineConnect=0;shadow=0;fillColor=#FFFFFF;" parent="Ng2WjSJcqN4tj9qCuIeY-1" vertex="1">
          <mxGeometry x="280" y="180" width="100" height="160" as="geometry" />
        </mxCell>
        <mxCell id="Ng2WjSJcqN4tj9qCuIeY-5" value="" style="html=1;points=[];perimeter=orthogonalPerimeter;shadow=0;fillColor=#FFFFFF;" parent="Ng2WjSJcqN4tj9qCuIeY-3" vertex="1">
          <mxGeometry x="45" y="70" width="10" height="80" as="geometry" />
        </mxCell>
        <mxCell id="Ng2WjSJcqN4tj9qCuIeY-6" value="TempForSummerAndWinter" style="html=1;verticalAlign=bottom;endArrow=block;" parent="Ng2WjSJcqN4tj9qCuIeY-1" target="Ng2WjSJcqN4tj9qCuIeY-3" edge="1">
          <mxGeometry width="80" relative="1" as="geometry">
            <mxPoint x="140" y="250" as="sourcePoint" />
            <mxPoint x="220" y="250" as="targetPoint" />
          </mxGeometry>
        </mxCell>
        <mxCell id="Ng2WjSJcqN4tj9qCuIeY-8" value="updateRecordOfTemp" style="edgeStyle=orthogonalEdgeStyle;html=1;align=left;spacingLeft=2;endArrow=block;rounded=0;entryX=1;entryY=0;" parent="Ng2WjSJcqN4tj9qCuIeY-1" edge="1">
          <mxGeometry relative="1" as="geometry">
            <mxPoint x="330" y="270" as="sourcePoint" />
            <Array as="points">
              <mxPoint x="355" y="270" />
            </Array>
            <mxPoint x="335" y="290" as="targetPoint" />
          </mxGeometry>
        </mxCell>
        <mxCell id="Ng2WjSJcqN4tj9qCuIeY-9" value="SuccessMessage" style="html=1;verticalAlign=bottom;endArrow=open;dashed=1;endSize=8;exitX=0.2;exitY=1;exitDx=0;exitDy=0;exitPerimeter=0;" parent="Ng2WjSJcqN4tj9qCuIeY-1" source="Ng2WjSJcqN4tj9qCuIeY-5" target="Ng2WjSJcqN4tj9qCuIeY-2" edge="1">
          <mxGeometry relative="1" as="geometry">
            <mxPoint x="270" y="329.5" as="sourcePoint" />
            <mxPoint x="190" y="329.5" as="targetPoint" />
          </mxGeometry>
        </mxCell>
      </root>
    </mxGraphModel>
  </diagram>
  <diagram id="8MvD7-P4snf87cYQ7J5n" name="ManageZoneTemp">
    <mxGraphModel dx="466" dy="645" grid="1" gridSize="10" guides="1" tooltips="1" connect="1" arrows="1" fold="1" page="1" pageScale="1" pageWidth="850" pageHeight="1100" math="0" shadow="0">
      <root>
        <mxCell id="nOwNBk0ENd_ktqmfTxCf-0" />
        <mxCell id="nOwNBk0ENd_ktqmfTxCf-1" parent="nOwNBk0ENd_ktqmfTxCf-0" />
        <mxCell id="nOwNBk0ENd_ktqmfTxCf-2" value=":User" style="shape=umlLifeline;participant=umlActor;perimeter=lifelinePerimeter;whiteSpace=wrap;html=1;container=1;collapsible=0;recursiveResize=0;verticalAlign=top;spacingTop=36;outlineConnect=0;shadow=0;fillColor=#FFFFFF;" parent="nOwNBk0ENd_ktqmfTxCf-1" vertex="1">
          <mxGeometry x="150" y="150" width="20" height="300" as="geometry" />
        </mxCell>
        <mxCell id="dL4Tdz0Uhen3v5mVYFUZ-1" value="" style="html=1;points=[];perimeter=orthogonalPerimeter;" vertex="1" parent="nOwNBk0ENd_ktqmfTxCf-2">
          <mxGeometry x="5" y="70" width="10" height="190" as="geometry" />
        </mxCell>
        <mxCell id="nOwNBk0ENd_ktqmfTxCf-3" value=":SHH" style="shape=umlLifeline;perimeter=lifelinePerimeter;whiteSpace=wrap;html=1;container=1;collapsible=0;recursiveResize=0;outlineConnect=0;shadow=0;fillColor=#FFFFFF;" parent="nOwNBk0ENd_ktqmfTxCf-1" vertex="1">
          <mxGeometry x="290" y="150" width="100" height="300" as="geometry" />
        </mxCell>
        <mxCell id="dL4Tdz0Uhen3v5mVYFUZ-2" value="" style="html=1;points=[];perimeter=orthogonalPerimeter;" vertex="1" parent="nOwNBk0ENd_ktqmfTxCf-3">
          <mxGeometry x="45" y="70" width="10" height="190" as="geometry" />
        </mxCell>
        <mxCell id="dL4Tdz0Uhen3v5mVYFUZ-3" value="zoneInformation" style="html=1;verticalAlign=bottom;endArrow=block;exitX=0.8;exitY=-0.014;exitDx=0;exitDy=0;exitPerimeter=0;" edge="1" parent="nOwNBk0ENd_ktqmfTxCf-1" source="dL4Tdz0Uhen3v5mVYFUZ-1" target="nOwNBk0ENd_ktqmfTxCf-3">
          <mxGeometry width="80" relative="1" as="geometry">
            <mxPoint x="210" y="230" as="sourcePoint" />
            <mxPoint x="290" y="230" as="targetPoint" />
          </mxGeometry>
        </mxCell>
        <mxCell id="dL4Tdz0Uhen3v5mVYFUZ-10" value="availableRooms" style="html=1;verticalAlign=bottom;endArrow=open;dashed=1;endSize=8;" edge="1" parent="nOwNBk0ENd_ktqmfTxCf-1" source="dL4Tdz0Uhen3v5mVYFUZ-2">
          <mxGeometry relative="1" as="geometry">
            <mxPoint x="240" y="270" as="sourcePoint" />
            <mxPoint x="160" y="270" as="targetPoint" />
          </mxGeometry>
        </mxCell>
        <mxCell id="dL4Tdz0Uhen3v5mVYFUZ-12" value="roomsToBeAddedToTheZone" style="html=1;verticalAlign=bottom;endArrow=block;" edge="1" parent="nOwNBk0ENd_ktqmfTxCf-1" target="dL4Tdz0Uhen3v5mVYFUZ-2">
          <mxGeometry width="80" relative="1" as="geometry">
            <mxPoint x="160" y="320" as="sourcePoint" />
            <mxPoint x="240" y="320" as="targetPoint" />
          </mxGeometry>
        </mxCell>
        <mxCell id="dL4Tdz0Uhen3v5mVYFUZ-14" value="RecordZone" style="edgeStyle=orthogonalEdgeStyle;html=1;align=left;spacingLeft=2;endArrow=block;rounded=0;entryX=1;entryY=0;" edge="1" parent="nOwNBk0ENd_ktqmfTxCf-1">
          <mxGeometry relative="1" as="geometry">
            <mxPoint x="340" y="340" as="sourcePoint" />
            <Array as="points">
              <mxPoint x="365" y="340" />
            </Array>
            <mxPoint x="345" y="360" as="targetPoint" />
          </mxGeometry>
        </mxCell>
        <mxCell id="dL4Tdz0Uhen3v5mVYFUZ-15" value="SuccessMessgae" style="html=1;verticalAlign=bottom;endArrow=open;dashed=1;endSize=8;exitX=0.2;exitY=0.9;exitDx=0;exitDy=0;exitPerimeter=0;" edge="1" parent="nOwNBk0ENd_ktqmfTxCf-1" source="dL4Tdz0Uhen3v5mVYFUZ-2">
          <mxGeometry relative="1" as="geometry">
            <mxPoint x="240" y="390" as="sourcePoint" />
            <mxPoint x="160" y="390" as="targetPoint" />
          </mxGeometry>
        </mxCell>
      </root>
    </mxGraphModel>
  </diagram>
  <diagram id="8TcxnHq0_HYYXrH0qOIq" name="AutomaticMonitoring">
    <mxGraphModel dx="466" dy="645" grid="1" gridSize="10" guides="1" tooltips="1" connect="1" arrows="1" fold="1" page="1" pageScale="1" pageWidth="850" pageHeight="1100" math="0" shadow="0">
      <root>
        <mxCell id="8o7pTr_hB_i20tJ4mFsh-0" />
        <mxCell id="8o7pTr_hB_i20tJ4mFsh-1" parent="8o7pTr_hB_i20tJ4mFsh-0" />
        <mxCell id="dsGwPEKTM5ViDPEtpFaN-0" value=":System" style="shape=umlLifeline;perimeter=lifelinePerimeter;whiteSpace=wrap;html=1;container=1;collapsible=0;recursiveResize=0;outlineConnect=0;" vertex="1" parent="8o7pTr_hB_i20tJ4mFsh-1">
          <mxGeometry x="180" y="120" width="100" height="500" as="geometry" />
        </mxCell>
        <mxCell id="dsGwPEKTM5ViDPEtpFaN-3" value="" style="html=1;points=[];perimeter=orthogonalPerimeter;" vertex="1" parent="dsGwPEKTM5ViDPEtpFaN-0">
          <mxGeometry x="45" y="60" width="10" height="430" as="geometry" />
        </mxCell>
        <mxCell id="dsGwPEKTM5ViDPEtpFaN-2" value="monitor" style="edgeStyle=orthogonalEdgeStyle;html=1;align=left;spacingLeft=2;endArrow=block;rounded=0;entryX=1;entryY=0;" edge="1" parent="8o7pTr_hB_i20tJ4mFsh-1">
          <mxGeometry relative="1" as="geometry">
            <mxPoint x="230" y="200" as="sourcePoint" />
            <Array as="points">
              <mxPoint x="255" y="200" />
            </Array>
            <mxPoint x="230" y="220" as="targetPoint" />
          </mxGeometry>
        </mxCell>
        <mxCell id="dsGwPEKTM5ViDPEtpFaN-5" value="openWindows" style="edgeStyle=orthogonalEdgeStyle;html=1;align=left;spacingLeft=2;endArrow=block;rounded=0;entryX=1;entryY=0;" edge="1" parent="8o7pTr_hB_i20tJ4mFsh-1">
          <mxGeometry relative="1" as="geometry">
            <mxPoint x="230" y="280" as="sourcePoint" />
            <Array as="points">
              <mxPoint x="255" y="280" />
            </Array>
            <mxPoint x="235" y="300" as="targetPoint" />
          </mxGeometry>
        </mxCell>
        <mxCell id="dsGwPEKTM5ViDPEtpFaN-7" value="closeWindows" style="edgeStyle=orthogonalEdgeStyle;html=1;align=left;spacingLeft=2;endArrow=block;rounded=0;entryX=1;entryY=0;" edge="1" parent="8o7pTr_hB_i20tJ4mFsh-1">
          <mxGeometry relative="1" as="geometry">
            <mxPoint x="230" y="370" as="sourcePoint" />
            <Array as="points">
              <mxPoint x="255" y="370" />
            </Array>
            <mxPoint x="235" y="390" as="targetPoint" />
          </mxGeometry>
        </mxCell>
        <mxCell id="dsGwPEKTM5ViDPEtpFaN-9" value="NotifyUser" style="edgeStyle=orthogonalEdgeStyle;html=1;align=left;spacingLeft=2;endArrow=block;rounded=0;entryX=1;entryY=0;" edge="1" parent="8o7pTr_hB_i20tJ4mFsh-1">
          <mxGeometry relative="1" as="geometry">
            <mxPoint x="230" y="450" as="sourcePoint" />
            <Array as="points">
              <mxPoint x="255" y="450" />
            </Array>
            <mxPoint x="235" y="470" as="targetPoint" />
          </mxGeometry>
        </mxCell>
        <mxCell id="dsGwPEKTM5ViDPEtpFaN-14" value="SetTempToDefault" style="edgeStyle=orthogonalEdgeStyle;html=1;align=left;spacingLeft=2;endArrow=block;rounded=0;entryX=1;entryY=0;" edge="1" parent="8o7pTr_hB_i20tJ4mFsh-1">
          <mxGeometry relative="1" as="geometry">
            <mxPoint x="230" y="530" as="sourcePoint" />
            <Array as="points">
              <mxPoint x="255" y="530" />
            </Array>
            <mxPoint x="235" y="550" as="targetPoint" />
          </mxGeometry>
        </mxCell>
        <mxCell id="dsGwPEKTM5ViDPEtpFaN-18" value="" style="endArrow=none;dashed=1;html=1;exitX=0.003;exitY=0.253;exitDx=0;exitDy=0;exitPerimeter=0;" edge="1" parent="8o7pTr_hB_i20tJ4mFsh-1" source="dsGwPEKTM5ViDPEtpFaN-17">
          <mxGeometry width="50" height="50" relative="1" as="geometry">
            <mxPoint x="240" y="360" as="sourcePoint" />
            <mxPoint x="461" y="321" as="targetPoint" />
          </mxGeometry>
        </mxCell>
        <mxCell id="OWWtLqND4jHf0PdgiZ9F-0" value="[outside temp &amp;lt; inside temp]" style="text;html=1;align=center;verticalAlign=middle;resizable=0;points=[];autosize=1;fillColor=#FFFFFF;" vertex="1" parent="8o7pTr_hB_i20tJ4mFsh-1">
          <mxGeometry x="120" y="250" width="170" height="20" as="geometry" />
        </mxCell>
        <mxCell id="OWWtLqND4jHf0PdgiZ9F-1" value="[outside temp &amp;gt; inside temp]" style="text;html=1;align=center;verticalAlign=middle;resizable=0;points=[];autosize=1;fillColor=#FFFFFF;" vertex="1" parent="8o7pTr_hB_i20tJ4mFsh-1">
          <mxGeometry x="100" y="330" width="170" height="20" as="geometry" />
        </mxCell>
        <mxCell id="OWWtLqND4jHf0PdgiZ9F-2" value="" style="endArrow=none;dashed=1;html=1;exitX=0.003;exitY=0.253;exitDx=0;exitDy=0;exitPerimeter=0;" edge="1" parent="8o7pTr_hB_i20tJ4mFsh-1">
          <mxGeometry width="50" height="50" relative="1" as="geometry">
            <mxPoint x="79.99999999999999" y="399.50000000000006" as="sourcePoint" />
            <mxPoint x="459.86" y="399.54" as="targetPoint" />
          </mxGeometry>
        </mxCell>
        <mxCell id="OWWtLqND4jHf0PdgiZ9F-3" value="[window blocked || unusual temp]" style="text;html=1;align=center;verticalAlign=middle;resizable=0;points=[];autosize=1;fillColor=#FFFFFF;" vertex="1" parent="8o7pTr_hB_i20tJ4mFsh-1">
          <mxGeometry x="90" y="410" width="190" height="20" as="geometry" />
        </mxCell>
        <mxCell id="OWWtLqND4jHf0PdgiZ9F-4" value="" style="endArrow=none;dashed=1;html=1;exitX=0.003;exitY=0.253;exitDx=0;exitDy=0;exitPerimeter=0;" edge="1" parent="8o7pTr_hB_i20tJ4mFsh-1">
          <mxGeometry width="50" height="50" relative="1" as="geometry">
            <mxPoint x="80" y="490" as="sourcePoint" />
            <mxPoint x="459.86" y="490.03999999999996" as="targetPoint" />
          </mxGeometry>
        </mxCell>
        <mxCell id="OWWtLqND4jHf0PdgiZ9F-5" value="[away mode on]" style="text;html=1;align=center;verticalAlign=middle;resizable=0;points=[];autosize=1;fillColor=#FFFFFF;" vertex="1" parent="8o7pTr_hB_i20tJ4mFsh-1">
          <mxGeometry x="110" y="500" width="100" height="20" as="geometry" />
        </mxCell>
        <mxCell id="dsGwPEKTM5ViDPEtpFaN-17" value="alt" style="shape=umlFrame;whiteSpace=wrap;html=1;width=40;height=20;" vertex="1" parent="8o7pTr_hB_i20tJ4mFsh-1">
          <mxGeometry x="80" y="240" width="380" height="340" as="geometry" />
        </mxCell>
      </root>
    </mxGraphModel>
  </diagram>
</mxfile>
